<svg xmlns="http://www.w3.org/2000/svg" width="930" height="360" viewBox="0 0 930 360" role="img" aria-labelledby="title">
    <title id="title">HAPI handoff horizontal logo</title>
    <g transform="scale(.72)" fill="#F25562">
        <rect x="72" y="240" width="24" height="12" rx="6" />
        <rect x="416" y="240" width="24" height="12" rx="6" />
        <path fill-rule="evenodd" d="M50 227H66A12 12 0 0 1 78 239V253A12 12 0 0 1 66 265H50A12 12 0 0 1 38 253V239A12 12 0 0 1 50 227ZM62 235L47 246L62 257H69L55 246L69 235Z" />
        <path transform="translate(512 0) scale(-1 1)" fill-rule="evenodd" d="M50 227H66A12 12 0 0 1 78 239V253A12 12 0 0 1 66 265H50A12 12 0 0 1 38 253V239A12 12 0 0 1 50 227ZM62 235L47 246L62 257H69L55 246L69 235Z" />
        <path fill-rule="evenodd" d="M160 84H352A82 82 0 0 1 434 166V338A82 82 0 0 1 352 420H160A82 82 0 0 1 78 338V166A82 82 0 0 1 160 84ZM160 116H352A50 50 0 0 1 402 166V338A50 50 0 0 1 352 388H160A50 50 0 0 1 110 338V166A50 50 0 0 1 160 116Z" />
        <circle cx="190" cy="226" r="27" />
        <circle cx="322" cy="226" r="27" />
        <path d="M153 306Q256 402 359 306L337 306Q256 362 175 306Z" />
        <circle cx="164" cy="306" r="11" />
        <circle cx="348" cy="306" r="11" />
    </g>
    <g fill="#23252B">
        <rect x="390" y="108" width="26" height="144" rx="13" />
        <rect x="470" y="108" width="26" height="144" rx="13" />
        <rect x="390" y="167" width="106" height="26" rx="13" />
        <path d="M520 252L572 108H598L650 252H622L608 214H562L548 252ZM571 190H599L585 149Z" fill-rule="evenodd" />
        <rect x="700" y="108" width="28" height="144" rx="14" />
        <path fill-rule="evenodd" d="M714 108H776A55 52 0 0 1 831 160A55 52 0 0 1 776 212H714ZM728 134H774A28 26 0 0 1 802 160A28 26 0 0 1 774 186H728Z" />
        <rect x="866" y="108" width="28" height="144" rx="14" />
    </g>
</svg>
